<?xml version="1.0" standalone="no"?>
<!DOCTYPE svg PUBLIC "-//W3C//DTD SVG 20010904//EN"
 "http://www.w3.org/TR/2001/REC-SVG-20010904/DTD/svg10.dtd">
<svg version="1.0" xmlns="http://www.w3.org/2000/svg"
 width="700.000000pt" height="700.000000pt" viewBox="0 0 700.000000 700.000000"
 preserveAspectRatio="xMidYMid meet">
<metadata>
Created by potrace 1.14, written by Peter Selinger 2001-2017
</metadata>
<g transform="translate(0.000000,700.000000) scale(0.100000,-0.100000)"
fill="#000000" stroke="none">
<path d="M2430 6997 c-3 -3 -25 -8 -50 -11 -220 -29 -451 -204 -552 -416 -39
-82 -77 -213 -70 -241 1 -4 -33 -19 -76 -34 -167 -59 -330 -183 -431 -329
-130 -188 -179 -403 -145 -634 6 -46 15 -86 18 -89 3 -4 -29 -18 -71 -33 -330
-111 -550 -367 -604 -700 -15 -93 -10 -294 8 -322 2 -5 6 -18 8 -30 15 -76 80
-218 131 -285 13 -17 24 -35 24 -40 0 -4 -26 -21 -57 -37 -81 -41 -156 -98
-243 -185 -85 -86 -98 -102 -144 -175 -116 -180 -169 -357 -170 -566 -1 -150
4 -205 29 -298 59 -230 171 -402 380 -587 39 -34 162 -107 231 -137 49 -21 54
-26 50 -48 -3 -14 -13 -59 -22 -100 -52 -239 14 -511 175 -713 97 -122 255
-235 395 -282 50 -17 56 -19 141 -36 66 -13 225 -13 300 0 75 13 72 14 72 -1
0 -31 26 -126 50 -187 93 -234 307 -413 557 -465 79 -16 271 -14 326 4 19 6
45 13 56 16 79 16 226 106 309 189 117 116 189 258 215 422 8 48 11 865 11
2863 0 2531 -1 2802 -16 2872 -61 297 -285 530 -575 598 -49 12 -252 25 -260
17z"/>
<path d="M4330 6984 c-319 -69 -547 -313 -605 -648 -3 -21 -6 -1299 -6 -2840
0 -3047 -3 -2867 52 -3010 79 -203 267 -381 470 -445 98 -31 125 -35 249 -35
168 0 299 41 434 133 150 104 272 291 310 475 15 68 10 67 116 51 175 -25 358
7 520 91 154 80 273 195 361 347 39 68 86 195 95 255 3 20 8 46 11 56 13 44 3
229 -17 312 -23 99 -24 104 -9 104 23 0 174 83 242 133 231 173 370 395 433
692 13 63 12 291 -2 370 -58 326 -246 596 -531 765 -40 23 -73 44 -73 45 0 2
16 27 36 56 69 102 114 222 139 364 3 17 5 71 6 121 1 293 -148 568 -395 731
-69 45 -200 104 -262 117 l-31 7 14 61 c39 167 16 369 -60 539 -96 216 -320
414 -532 471 -36 10 -47 17 -51 38 -11 54 -38 156 -45 170 -4 8 -20 40 -35 70
-101 206 -298 357 -529 405 -64 14 -241 13 -305 -1z"/>
</g>
</svg>
